<?xml version="1.0" standalone="no"?>
<!DOCTYPE svg PUBLIC "-//W3C//DTD SVG 20010904//EN"
 "http://www.w3.org/TR/2001/REC-SVG-20010904/DTD/svg10.dtd">
<svg version="1.0" xmlns="http://www.w3.org/2000/svg"
 width="1365.000000pt" height="1365.000000pt" viewBox="0 0 1365.000000 1365.000000"
 preserveAspectRatio="xMidYMid meet">

<g transform="translate(0.000000,1365.000000) scale(0.100000,-0.100000)"
fill="#000000" stroke="none">
<path d="M6010 11238 c-113 -4 -302 -17 -420 -28 -336 -31 -472 -72 -618 -187
-184 -146 -251 -293 -252 -549 l0 -121 -118 -10 c-133 -12 -179 -29 -232 -89
-43 -50 -70 -113 -77 -180 -6 -52 -8 -55 -47 -73 -23 -10 -51 -30 -64 -44
l-23 -25 3 -325 c3 -371 0 -355 91 -382 102 -30 232 -14 281 34 l31 31 3 321
c3 361 9 332 -75 391 -48 32 -53 54 -29 113 21 50 59 65 162 65 l87 0 -7 -137
c-9 -191 -25 -1578 -27 -2274 l-1 -577 25 -48 c28 -56 123 -150 166 -165 l28
-10 7 -132 c8 -150 25 -222 62 -267 15 -17 23 -35 18 -39 -5 -4 -88 -31 -184
-60 -690 -207 -1310 -551 -1754 -972 -140 -133 -182 -205 -139 -240 13 -12
626 -14 3923 -14 3297 0 3910 2 3923 14 47 38 0 111 -169 266 -271 248 -557
441 -940 635 -251 127 -525 233 -896 345 -49 14 -88 28 -88 29 0 2 13 20 30
41 40 50 50 92 50 206 0 53 3 117 6 142 6 41 10 47 46 63 50 22 152 131 169
181 20 55 17 1387 -4 2297 -9 390 -15 712 -12 714 11 11 180 0 206 -13 50 -27
70 -155 23 -155 -8 0 -32 -16 -54 -37 l-41 -36 3 -327 c3 -356 2 -345 62 -378
45 -24 238 -24 283 1 65 35 68 48 71 386 l3 304 -28 30 c-15 16 -47 38 -69 48
-41 18 -42 20 -48 81 -19 172 -118 252 -327 265 l-99 6 0 111 c-1 238 -48 367
-183 501 -208 207 -391 247 -1247 275 -351 11 -1202 10 -1490 -2z m1740 -361
c9 -15 16 -59 18 -132 3 -103 2 -112 -20 -145 l-24 -35 -898 0 -899 0 -21 28
c-17 23 -22 49 -27 130 -4 56 -3 112 2 123 18 49 15 49 954 54 484 3 885 4
890 2 6 -1 17 -12 25 -25z m-1030 -1377 l0 -790 -851 2 -851 3 -24 28 c-45 52
-47 82 -35 507 17 577 29 840 41 883 13 44 61 102 103 124 50 25 184 30 920
32 l697 1 0 -790z m1817 757 c76 -39 103 -85 114 -189 10 -99 26 -545 35 -968
l7 -305 -49 -45 -49 -45 -832 3 -833 2 0 791 0 790 778 -3 777 -3 52 -28z
m-3062 -2136 c111 -49 178 -152 179 -276 1 -93 -24 -162 -81 -225 -71 -79
-109 -95 -228 -95 -89 0 -105 3 -151 27 -66 35 -128 106 -149 169 -23 67 -17
198 10 254 28 58 106 130 167 154 70 28 181 24 253 -8z m2952 1 c53 -28 134
-108 159 -158 15 -30 19 -60 19 -134 0 -86 -3 -100 -30 -149 -59 -107 -157
-161 -293 -161 -91 0 -140 19 -205 79 -100 93 -131 241 -75 362 32 70 87 127
159 163 49 25 62 27 139 24 62 -3 96 -10 127 -26z m-836 -291 c22 -26 25 -84
7 -98 -7 -6 -24 -13 -38 -16 -14 -4 -345 -7 -736 -7 -708 0 -756 2 -776 33
-14 22 -8 64 11 88 l19 24 604 5 c331 3 668 3 746 0 136 -5 145 -6 163 -29z
m531 -1023 c2 -90 2 -166 1 -169 -1 -3 -73 5 -160 17 -736 102 -1792 97 -2400
-12 l-33 -6 0 166 0 166 1295 0 1294 0 3 -162z m-1216 -224 l51 -6 10 -102 c5
-55 7 -104 4 -108 -3 -3 -71 -10 -150 -13 l-144 -8 7 99 c11 154 5 144 95 144
42 0 99 -3 127 -6z m111 -536 c13 -22 79 -616 68 -626 -9 -10 -511 -9 -521 1
-7 6 48 546 62 615 4 22 5 22 194 22 140 0 191 -3 197 -12z"/>
<path d="M3254 4501 c-59 -36 -70 -139 -18 -180 55 -43 154 -35 194 16 22 29
27 101 9 135 -25 46 -130 63 -185 29z"/>
<path d="M7100 4501 c-48 -5 -55 -9 -52 -26 5 -27 74 -141 225 -369 l125 -190
-32 -50 c-18 -28 -80 -123 -138 -211 -115 -174 -178 -283 -178 -307 0 -20 41
-28 134 -28 l71 0 126 197 c70 109 131 199 136 200 5 2 63 -78 127 -177 65
-99 129 -189 143 -200 21 -17 41 -20 115 -20 135 0 136 -4 -59 299 -146 226
-183 288 -183 302 0 6 64 110 143 232 168 259 197 308 197 329 0 13 -20 17
-106 23 -58 4 -107 5 -108 4 -6 -7 -243 -384 -253 -402 -8 -16 -20 -3 -78 90
-38 59 -90 142 -116 183 -80 126 -102 137 -239 121z"/>
<path d="M1805 4448 c-4 -29 -5 -291 -3 -581 3 -456 5 -529 18 -537 26 -16
146 -12 164 6 14 13 16 66 16 421 0 224 3 404 6 400 6 -5 262 -568 287 -631
l12 -28 95 7 c52 3 100 11 106 16 16 13 70 135 185 418 l104 255 5 -423 c6
-492 -4 -454 115 -449 62 3 71 6 83 28 11 20 12 117 8 535 -4 281 -9 534 -12
563 l-7 52 -132 0 -132 0 -73 -172 c-140 -333 -243 -559 -250 -551 -8 9 -218
490 -276 631 l-37 92 -138 0 -138 0 -6 -52z"/>
<path d="M3645 4398 c-9 -139 -2 -1054 8 -1065 5 -4 43 -10 86 -11 114 -6 111
-13 111 224 l0 195 101 -3 101 -3 111 -207 112 -208 95 0 c52 0 101 4 109 9
18 11 -15 80 -138 296 -45 77 -81 145 -81 150 0 6 14 19 32 29 51 31 107 86
136 135 25 42 27 57 31 168 4 161 -11 213 -85 287 -91 93 -118 99 -445 104
l-277 4 -7 -104z m510 -108 c62 -30 84 -59 97 -127 10 -57 9 -64 -13 -109 -39
-80 -105 -106 -296 -120 l-93 -6 0 197 0 198 132 -7 c102 -5 142 -11 173 -26z"/>
<path d="M8987 4103 c-11 -669 -11 -706 15 -738 30 -38 76 -55 152 -55 108 0
128 19 116 114 -4 35 -9 41 -36 48 -18 4 -35 16 -39 26 -4 9 -9 239 -12 510
l-6 492 -92 0 -92 0 -6 -397z"/>
<path d="M5680 4393 c-25 -10 -28 -23 -36 -125 l-7 -98 -54 0 c-48 0 -54 -2
-63 -26 -14 -35 -12 -90 3 -102 6 -5 35 -13 64 -17 l51 -7 4 -276 c4 -308 7
-322 70 -378 21 -19 57 -37 88 -44 66 -16 190 -8 248 15 l42 17 0 58 c0 39 -5
62 -15 70 -9 7 -49 13 -100 14 -124 2 -118 -14 -123 281 l-5 245 101 0 c55 0
103 3 105 8 3 4 8 37 12 73 l7 66 -113 9 -114 9 -6 98 c-4 54 -9 101 -12 104
-9 8 -130 14 -147 6z"/>
<path d="M6400 4161 c-82 -26 -138 -58 -145 -82 -7 -20 30 -119 44 -119 3 0
46 11 96 25 155 43 262 29 289 -37 7 -18 16 -51 19 -74 l5 -41 -162 -9 c-137
-8 -168 -13 -209 -33 -109 -53 -147 -111 -147 -226 0 -86 21 -136 78 -187 100
-90 256 -89 386 2 31 22 59 40 61 40 2 0 5 -17 7 -37 4 -48 31 -63 116 -63
l63 0 -3 333 -3 332 -27 47 c-36 59 -98 113 -156 132 -65 22 -239 21 -312 -3z
m304 -473 c-1 -13 -3 -40 -3 -60 -1 -29 -10 -48 -38 -79 -63 -70 -146 -96
-217 -69 -50 19 -74 120 -40 168 26 37 55 46 179 52 66 4 120 7 121 8 0 1 0
-8 -2 -20z"/>
<path d="M8313 4165 c-64 -18 -138 -52 -154 -71 -15 -18 1 -80 30 -115 l18
-23 90 27 c101 30 185 35 239 12 39 -16 73 -77 74 -131 l0 -32 -137 -7 c-177
-9 -252 -31 -310 -89 -95 -95 -91 -259 9 -354 41 -39 136 -74 199 -74 56 1
138 33 201 78 l48 34 6 -41 c8 -47 28 -59 104 -59 86 0 83 -10 77 330 -3 172
-10 310 -16 332 -21 68 -73 131 -136 163 -54 28 -68 30 -174 32 -77 2 -133 -2
-168 -12z m291 -471 c3 -9 6 -36 6 -60 0 -37 -6 -51 -37 -85 -67 -74 -155 -99
-224 -63 -61 31 -74 127 -24 174 43 41 266 68 279 34z"/>
<path d="M9560 4156 c-100 -35 -130 -53 -130 -79 0 -25 33 -102 47 -110 5 -3
50 5 99 18 97 27 204 32 243 12 38 -19 61 -58 67 -113 l6 -51 -138 -6 c-158
-6 -223 -22 -286 -70 -192 -147 -73 -447 177 -447 63 0 135 26 197 70 59 42
68 40 68 -16 0 -32 32 -44 117 -44 l66 0 -7 313 c-4 171 -12 328 -17 349 -18
68 -68 130 -137 165 -62 32 -67 33 -185 33 -102 0 -133 -4 -187 -24z m324
-462 c3 -9 6 -36 6 -60 0 -107 -163 -199 -261 -148 -61 31 -74 127 -24 174 43
41 266 68 279 34z"/>
<path d="M10593 4161 c-24 -11 -64 -36 -90 -56 l-48 -37 -3 51 -3 51 -90 0
-89 0 0 -585 0 -585 83 0 c45 0 88 4 95 8 24 16 32 77 32 236 l0 159 23 -21
c12 -11 49 -33 82 -48 54 -23 69 -26 150 -22 149 7 238 66 313 206 40 75 56
177 48 302 -8 112 -32 171 -102 249 -69 77 -133 104 -258 108 -85 3 -108 1
-143 -16z m192 -183 c69 -46 100 -115 99 -223 -1 -134 -54 -222 -148 -250 -90
-27 -151 -12 -213 50 l-43 42 0 156 0 156 53 40 c66 50 90 60 153 60 41 1 60
-5 99 -31z"/>
<path d="M11417 4165 c-27 -7 -73 -25 -104 -40 -55 -28 -55 -28 -50 -67 7 -52
32 -88 61 -88 12 0 58 9 101 20 88 23 188 26 224 7 29 -15 58 -68 67 -123 l6
-41 -163 -9 c-184 -11 -230 -25 -299 -94 -67 -67 -80 -218 -26 -300 28 -42 92
-90 145 -108 85 -29 209 -3 296 64 25 19 47 34 50 34 3 0 5 -16 5 -35 0 -49
31 -67 107 -63 l58 3 14 44 c12 37 12 92 4 325 -9 253 -12 285 -31 326 -54
115 -145 161 -316 159 -56 0 -123 -7 -149 -14z m299 -479 c9 -37 -15 -108 -49
-145 -61 -64 -142 -86 -212 -57 -40 17 -55 42 -55 90 0 97 62 130 252 135 53
1 58 -1 64 -23z"/>
<path d="M3244 4162 c-8 -5 -14 -128 -19 -418 l-8 -411 33 -6 c18 -4 63 -7
101 -7 l69 0 0 409 c0 225 3 416 6 425 5 14 -6 16 -82 16 -49 0 -94 -4 -100
-8z"/>
<path d="M4628 4011 c-2 -87 -1 -237 3 -333 4 -153 8 -179 28 -221 28 -57 96
-119 149 -135 102 -31 245 -3 330 63 25 19 49 35 53 35 4 0 9 -17 11 -37 4
-48 31 -63 116 -63 l62 0 0 409 c0 225 3 417 6 426 6 14 -5 15 -97 13 l-104
-3 -7 -85 c-3 -47 -6 -171 -7 -276 l-1 -192 -60 -56 c-75 -69 -123 -86 -183
-65 -50 17 -82 61 -91 121 -3 24 -8 159 -12 301 l-7 257 -93 0 -93 0 -3 -159z"/>
</g>
</svg>
